<svg width="16" height="16" viewBox="0 0 16 16" fill="none" xmlns="http://www.w3.org/2000/svg">
  <!-- Background rounded rect (dark theme) -->
  <rect x="0.5" y="0.5" width="15" height="15" rx="3" fill="#1B3A1B" stroke="#66BB6A" stroke-width="0.6"/>
  <!-- Curly brace left -->
  <path d="M4.5 4 C3.5 4 3 4.8 3 5.5 L3 6.8 C3 7.3 2.5 7.8 2 8 C2.5 8.2 3 8.7 3 9.2 L3 10.5 C3 11.2 3.5 12 4.5 12"
        stroke="#81C784" stroke-width="1.2" fill="none" stroke-linecap="round"/>
  <!-- Right arrow -->
  <path d="M7.5 5.5 L11 8 L7.5 10.5" stroke="#66BB6A" stroke-width="1.8" fill="none" stroke-linecap="round" stroke-linejoin="round"/>
  <!-- Curly brace right -->
  <path d="M11.5 4 C12.5 4 13 4.8 13 5.5 L13 6.8 C13 7.3 13.5 7.8 14 8 C13.5 8.2 13 8.7 13 9.2 L13 10.5 C13 11.2 12.5 12 11.5 12"
        stroke="#81C784" stroke-width="1.2" fill="none" stroke-linecap="round"/>
</svg>
